<?xml version="1.0" encoding="utf-8"?>
<!-- Generator: Adobe Illustrator 16.0.0, SVG Export Plug-In . SVG Version: 6.00 Build 0)  -->
<!DOCTYPE svg PUBLIC "-//W3C//DTD SVG 1.1//EN" "http://www.w3.org/Graphics/SVG/1.1/DTD/svg11.dtd">
<svg version="1.1" id="Слой_1" xmlns="http://www.w3.org/2000/svg" xmlns:xlink="http://www.w3.org/1999/xlink" x="0px" y="0px"
	 width="599.983px" height="607.929px" viewBox="91.195 79.957 599.983 607.929"
	 enable-background="new 91.195 79.957 599.983 607.929" xml:space="preserve">
<path display="none" d="M0,90c204,0,408,0,612,0c0,204,0,408,0,612c-204,0-408,0-612,0C0,498,0,294,0,90z M432.99,313.236
	c-29.038-24.097-62.604-36.306-100.693-36.624c-26.584-0.223-51.51,7.49-74.779,23.141c-8.064,5.419-12.128,3.267-12.192-6.455
	c-0.351-52.371-0.446-104.996-0.287-157.877c0.032-11.794-3.156-21.611-9.563-29.453c-5.897-7.235-14.328-11.746-25.293-13.531
	c-17.722-2.9-31.03,2.98-39.923,17.643c-4.303,7.076-6.582,17.245-6.837,30.504c-1.466,77.01-1.753,136.25-0.861,177.719
	c0.446,21.292-7.013,33.564-22.376,36.815c-6.63,1.403-18.663,0.112-36.098-3.873c-31.397-7.172-62.65-14.121-93.76-20.846
	c-5.451-1.147-5.722-0.415-0.813,2.199c36.146,19.444,72.292,38.888,108.439,58.331c0.159,0.064,4.701,2.248,13.626,6.551
	c17.818,8.543,28.146,21.596,30.982,39.158c2.327,14.473-2.343,25.404-14.009,32.8c-4.972,3.155-9.594,5.626-13.865,7.41
	c-3.06,1.309-2.949,2.185,0.334,2.63c18.265,2.582,27.699,12.592,28.305,30.026c0.829,24.703,0.94,50.904,0.334,78.604
	c-0.032,1.754,0.669,2.119,2.104,1.1l40.401-28.305c1.784-1.264,4.205-1.124,5.833,0.335c13.77,12.366,27.173,21.978,40.21,28.831
	c1.306,0.68,2.159,1.968,2.247,3.395l4.925,83.528c0.127,2.263,0.972,2.582,2.534,0.956c20.304-21.324,40.88-42.489,61.726-63.495
	c11.508-11.634,23.46-15.349,35.859-11.14c5.323,1.815,11.284,6.343,17.882,13.577c5.102,5.578,10.186,11.236,15.253,16.975
	c1.85,2.104,2.82,1.753,2.916-1.052c0.287-8.544,0.622-16.734,1.004-24.576c0.446-10.327,2.837-17.897,7.172-22.711
	c8.001-8.894,18.36-9.021,31.078-0.383c55.018,37.518,110.208,74.778,165.575,111.785c6.534,4.367,7.379,3.476,2.534-2.678
	c-15.014-19.029-30.043-38.536-45.088-58.521c-18.646-24.8-32.02-45.423-40.114-61.869c-22.632-45.899-33.995-95.228-34.091-147.979
	C483.527,378.708,466.65,341.159,432.99,313.236z"/>
<path fill="#4FACFE" d="M518.158,301.473c33.66,27.923,50.537,65.472,50.633,112.646c0.096,52.753,11.459,102.08,34.091,147.979
	c8.097,16.447,21.468,37.07,40.114,61.869c15.045,19.986,30.074,39.493,45.088,58.522c4.845,6.151,4,7.045-2.534,2.678
	c-55.367-37.007-110.559-74.269-165.575-111.785c-12.718-8.639-23.076-8.511-31.077,0.382c-4.335,4.813-6.727,12.384-7.173,22.711
	c-0.382,7.843-0.717,16.033-1.004,24.576c-0.096,2.806-1.066,3.155-2.916,1.052c-5.067-5.736-10.151-11.396-15.253-16.974
	c-6.598-7.235-12.559-11.762-17.882-13.578c-12.398-4.208-24.353-0.494-35.858,11.141c-20.847,21.006-41.423,42.171-61.727,63.494
	c-1.562,1.626-2.407,1.308-2.534-0.956l-4.925-83.527c-0.089-1.427-0.94-2.715-2.247-3.396
	c-13.037-6.854-26.439-16.464-40.211-28.831c-1.627-1.459-4.049-1.598-5.832-0.335l-40.402,28.306
	c-1.435,1.021-2.136,0.653-2.104-1.101c0.605-27.698,0.494-53.899-0.334-78.604c-0.606-17.437-10.041-27.444-28.305-30.026
	c-3.283-0.446-3.395-1.322-0.334-2.63c4.271-1.784,8.893-4.255,13.865-7.41c11.667-7.396,16.336-18.328,14.009-32.8
	c-2.837-17.563-13.165-30.615-30.982-39.158c-8.925-4.303-13.467-6.487-13.626-6.551c-36.146-19.443-72.292-38.887-108.439-58.331
	c-4.909-2.614-4.638-3.347,0.813-2.199c31.11,6.726,62.363,13.674,93.76,20.846c17.436,3.984,29.468,5.275,36.098,3.873
	c15.364-3.251,22.823-15.523,22.376-36.815c-0.893-41.469-0.605-100.709,0.861-177.719c0.255-13.26,2.534-23.428,6.837-30.504
	c8.893-14.662,22.201-20.543,39.923-17.643c10.965,1.785,19.396,6.295,25.293,13.531c6.405,7.841,9.594,17.659,9.563,29.453
	c-0.159,52.881-0.063,105.506,0.287,157.877c0.063,9.722,4.127,11.874,12.19,6.455c23.271-15.651,48.195-23.364,74.779-23.141
	C455.556,265.167,489.12,277.375,518.158,301.473z M511.082,425.451c0-50.278-40.758-91.036-91.035-91.036
	s-91.035,40.758-91.035,91.036c0,50.275,40.758,91.034,91.035,91.034S511.082,475.728,511.082,425.451z"/>
<path display="none" d="M425.914,437.215c0,50.276-40.758,91.034-91.035,91.034c-50.277,0-91.035-40.758-91.035-91.034
	c0-50.278,40.758-91.036,91.035-91.036C385.156,346.179,425.914,386.937,425.914,437.215z M399.903,437.215
	c0-35.543-28.813-64.356-64.355-64.356l0,0c-35.542,0-64.355,28.813-64.355,64.356l0,0c0,35.542,28.813,64.355,64.355,64.355
	C371.091,501.57,399.903,472.757,399.903,437.215z"/>
<circle fill="#4FACFE" cx="420.716" cy="425.451" r="64.356"/>
</svg>
