<?xml version="1.0" encoding="utf-8"?>
<!-- Generator: Adobe Illustrator 16.0.0, SVG Export Plug-In . SVG Version: 6.00 Build 0)  -->
<!DOCTYPE svg PUBLIC "-//W3C//DTD SVG 1.1//EN" "http://www.w3.org/Graphics/SVG/1.1/DTD/svg11.dtd">
<svg version="1.1" id="Слой_1" xmlns="http://www.w3.org/2000/svg" xmlns:xlink="http://www.w3.org/1999/xlink" x="0px" y="0px"
	 width="599.984px" height="607.929px" viewBox="0 0 599.984 607.929" enable-background="new 0 0 599.984 607.929"
	 xml:space="preserve">
<path display="none" d="M0,90c204,0,408,0,612,0c0,204,0,408,0,612c-204,0-408,0-612,0C0,498,0,294,0,90z M432.99,313.236
	c-29.037-24.097-62.604-36.306-100.693-36.624c-26.584-0.223-51.509,7.49-74.778,23.141c-8.064,5.418-12.128,3.267-12.192-6.455
	c-0.351-52.371-0.446-104.996-0.287-157.877c0.032-11.794-3.156-21.611-9.563-29.453c-5.897-7.235-14.328-11.746-25.293-13.531
	c-17.722-2.9-31.03,2.98-39.923,17.643c-4.303,7.076-6.582,17.245-6.837,30.504c-1.466,77.01-1.753,136.25-0.861,177.718
	c0.446,21.293-7.013,33.564-22.376,36.816c-6.63,1.4-18.663,0.109-36.098-3.873c-31.397-7.172-62.65-14.121-93.76-20.849
	c-5.451-1.146-5.722-0.415-0.813,2.199c36.146,19.442,72.292,38.888,108.439,58.331c0.159,0.063,4.701,2.246,13.626,6.551
	c17.818,8.543,28.146,21.598,30.982,39.156c2.327,14.477-2.343,25.404-14.009,32.799c-4.972,3.156-9.594,5.631-13.865,7.41
	c-3.06,1.314-2.949,2.189,0.334,2.631c18.265,2.582,27.699,12.596,28.305,30.025c0.829,24.703,0.94,50.904,0.334,78.605
	c-0.032,1.754,0.669,2.117,2.104,1.1l40.401-28.305c1.784-1.266,4.205-1.125,5.833,0.334c13.77,12.367,27.173,21.979,40.21,28.832
	c1.306,0.68,2.159,1.967,2.247,3.395l4.925,83.527c0.127,2.264,0.972,2.582,2.534,0.957c20.304-21.324,40.879-42.49,61.725-63.496
	c11.512-11.633,23.461-15.348,35.859-11.139c5.324,1.814,11.285,6.342,17.883,13.576c5.104,5.578,10.188,11.236,15.252,16.975
	c1.854,2.104,2.82,1.754,2.916-1.051c0.287-8.545,0.623-16.734,1.004-24.576c0.447-10.328,2.838-17.898,7.172-22.711
	c8.002-8.895,18.361-9.021,31.078-0.385c55.021,37.52,110.209,74.779,165.576,111.785c6.533,4.367,7.379,3.477,2.533-2.678
	c-15.014-19.029-30.043-38.535-45.088-58.521c-18.646-24.801-32.021-45.424-40.113-61.867c-22.633-45.9-33.996-95.23-34.092-147.98
	C483.527,378.708,466.65,341.16,432.99,313.236z"/>
<path display="none" d="M425.914,437.214c0,50.277-40.758,91.035-91.035,91.035c-50.276,0-91.035-40.758-91.035-91.035
	s40.758-91.035,91.035-91.035C385.156,346.179,425.914,386.937,425.914,437.214z M399.904,437.214
	c0-35.543-28.814-64.355-64.355-64.355l0,0c-35.542,0-64.355,28.813-64.355,64.355l0,0c0,35.543,28.813,64.355,64.355,64.355
	S399.904,472.757,399.904,437.214z"/>
<path d="M426.963,221.516c33.66,27.923,50.537,65.471,50.633,112.646c0.098,52.754,11.459,102.08,34.092,147.979
	c8.098,16.447,21.469,37.07,40.113,61.869c15.045,19.986,30.074,39.494,45.088,58.523c4.847,6.15,4,7.045-2.532,2.678
	c-55.367-37.008-110.561-74.27-165.575-111.785c-12.718-8.639-23.076-8.512-31.077,0.381c-4.335,4.814-6.729,12.389-7.173,22.711
	c-0.382,7.848-0.717,16.033-1.004,24.576c-0.098,2.811-1.066,3.156-2.916,1.057c-5.067-5.736-10.151-11.396-15.253-16.979
	c-6.6-7.23-12.561-11.762-17.884-13.578c-12.396-4.207-24.353-0.494-35.856,11.145c-20.847,21.006-41.423,42.172-61.727,63.494
	c-1.562,1.627-2.407,1.309-2.534-0.955l-4.925-83.527c-0.089-1.428-0.94-2.715-2.247-3.396
	c-13.037-6.854-26.439-16.463-40.211-28.83c-1.627-1.459-4.049-1.598-5.832-0.336l-40.402,28.307
	c-1.435,1.02-2.136,0.652-2.104-1.102c0.605-27.697,0.494-53.898-0.334-78.604c-0.606-17.438-10.041-27.443-28.305-30.025
	c-3.283-0.447-3.395-1.322-0.334-2.631c4.271-1.783,8.893-4.254,13.865-7.41c11.667-7.395,16.336-18.328,14.009-32.799
	c-2.837-17.564-13.165-30.615-30.982-39.158c-8.925-4.303-13.467-6.487-13.626-6.551C75.783,279.771,39.637,260.327,3.49,240.883
	c-4.909-2.614-4.638-3.347,0.813-2.199c31.11,6.726,62.363,13.674,93.76,20.847c17.436,3.983,29.468,5.274,36.098,3.873
	c15.364-3.252,22.823-15.523,22.376-36.815c-0.893-41.469-0.605-100.709,0.861-177.719c0.255-13.26,2.534-23.428,6.837-30.504
	c8.893-14.662,22.201-20.543,39.923-17.643c10.965,1.785,19.396,6.295,25.293,13.531c6.405,7.841,9.594,17.659,9.563,29.453
	c-0.159,52.881-0.063,105.506,0.287,157.877c0.063,9.722,4.127,11.874,12.19,6.455c23.271-15.651,48.195-23.364,74.779-23.141
	C364.361,185.21,397.925,197.418,426.963,221.516z M419.887,345.494c0-50.278-40.758-91.036-91.035-91.036
	c-50.275,0-91.035,40.758-91.035,91.036c0,50.275,40.758,91.035,91.035,91.035C379.129,436.529,419.887,395.771,419.887,345.494z"/>
<circle cx="329.521" cy="345.493" r="64.356"/>
</svg>
