<?xml version="1.0" encoding="utf-8"?>
<!-- Generator: Adobe Illustrator 16.0.0, SVG Export Plug-In . SVG Version: 6.00 Build 0)  -->
<!DOCTYPE svg PUBLIC "-//W3C//DTD SVG 1.1//EN" "http://www.w3.org/Graphics/SVG/1.1/DTD/svg11.dtd">
<svg version="1.1" id="Слой_1" xmlns="http://www.w3.org/2000/svg" xmlns:xlink="http://www.w3.org/1999/xlink" x="0px" y="0px"
	 width="633.367px" height="633.24px" viewBox="0 0 633.367 633.24" enable-background="new 0 0 633.367 633.24"
	 xml:space="preserve">
<g>
	<path fill="#FFFFFF" d="M128.136,61.061C174.862,26.37,230.222,5.244,288.141,0v95.729
		C166.755,111.497,81.109,222.876,96.846,344.502c15.736,121.627,126.896,207.441,248.281,191.674
		C466.516,520.408,552.16,409.03,536.424,287.404c-0.637-4.923-1.438-9.822-2.399-14.69l80.491-65.436
		c21.654,59.695,24.646,124.922,9.013,186.676c-43.013,169.824-215.279,272.561-384.771,229.465
		C136.465,597.41,53.831,522.045,18.396,422.439C-28.386,290.91,16.166,144.195,128.136,61.061z"/>
	<path fill="#FFFFFF" d="M555.298,106.771c0,0-41.729,64.298-54.817,85.132c-19.56-29.035-45.66-53.05-76.199-70.102v194.162
		c0,59.57-48.193,107.861-107.648,107.861c-59.447,0-107.646-48.291-107.646-107.861c0-59.572,48.199-107.862,107.646-107.862
		c21.439-0.035,42.396,6.375,60.156,18.4V4.442C446.677,17.913,509.935,55.44,555.298,106.771L555.298,106.771z"/>
</g>
</svg>
