<?xml version="1.0" encoding="utf-8"?>
<!-- Generator: Adobe Illustrator 16.0.0, SVG Export Plug-In . SVG Version: 6.00 Build 0)  -->
<!DOCTYPE svg PUBLIC "-//W3C//DTD SVG 1.1//EN" "http://www.w3.org/Graphics/SVG/1.1/DTD/svg11.dtd">
<svg version="1.1" id="Слой_1" xmlns="http://www.w3.org/2000/svg" xmlns:xlink="http://www.w3.org/1999/xlink" x="0px" y="0px"
	 width="633.367px" height="633.24px" viewBox="0 0 633.367 633.24" enable-background="new 0 0 633.367 633.24"
	 xml:space="preserve">
<g>
	<path fill="#4FACFE" d="M128.135,61.061C174.861,26.37,230.222,5.244,288.14,0v95.729
		C166.754,111.497,81.108,222.876,96.845,344.502c15.736,121.626,126.896,207.441,248.281,191.674
		c121.389-15.769,207.033-127.147,191.297-248.772c-0.637-4.923-1.438-9.822-2.4-14.69l80.492-65.436
		c21.654,59.695,24.645,124.921,9.012,186.675c-43.012,169.825-215.279,272.562-384.771,229.466
		C136.464,597.409,53.83,522.044,18.396,422.439C-28.387,290.909,16.165,144.195,128.135,61.061z"/>
	<path fill="#4FACFE" d="M555.298,106.771c0,0-41.729,64.298-54.818,85.132c-19.559-29.035-45.66-53.05-76.199-70.102v194.161
		c0,59.571-48.193,107.861-107.648,107.861c-59.447,0-107.646-48.29-107.646-107.861s48.199-107.861,107.646-107.861
		c21.439-0.035,42.396,6.375,60.156,18.4V4.442C446.677,17.913,509.935,55.44,555.298,106.771L555.298,106.771z"/>
</g>
</svg>
